<svg width="200" height="31" viewBox="0 0 200 31" fill="none" xmlns="http://www.w3.org/2000/svg">
<path d="M11 1.92C13.96 1.92 16.5467 2.50667 18.76 3.68C20.9733 4.85333 22.68 6.50667 23.88 8.64C25.1067 10.7467 25.72 13.1867 25.72 15.96C25.72 18.7067 25.1067 21.1467 23.88 23.28C22.68 25.4133 20.96 27.0667 18.72 28.24C16.5067 29.4133 13.9333 30 11 30H0.48V1.92H11ZM10.56 24.08C13.1467 24.08 15.16 23.3733 16.6 21.96C18.04 20.5467 18.76 18.5467 18.76 15.96C18.76 13.3733 18.04 11.36 16.6 9.92C15.16 8.48 13.1467 7.76 10.56 7.76H7.32V24.08H10.56Z" fill="#F8B602"/>
<path d="M28.1825 18.8C28.1825 16.5067 28.6092 14.4933 29.4625 12.76C30.3425 11.0267 31.5292 9.69333 33.0225 8.76C34.5158 7.82667 36.1825 7.36 38.0225 7.36C39.5958 7.36 40.9692 7.68 42.1425 8.32C43.3425 8.96 44.2625 9.8 44.9025 10.84V7.68H51.7425V30H44.9025V26.84C44.2358 27.88 43.3025 28.72 42.1025 29.36C40.9292 30 39.5558 30.32 37.9825 30.32C36.1692 30.32 34.5158 29.8533 33.0225 28.92C31.5292 27.96 30.3425 26.6133 29.4625 24.88C28.6092 23.12 28.1825 21.0933 28.1825 18.8ZM44.9025 18.84C44.9025 17.1333 44.4225 15.7867 43.4625 14.8C42.5292 13.8133 41.3825 13.32 40.0225 13.32C38.6625 13.32 37.5025 13.8133 36.5425 14.8C35.6092 15.76 35.1425 17.0933 35.1425 18.8C35.1425 20.5067 35.6092 21.8667 36.5425 22.88C37.5025 23.8667 38.6625 24.36 40.0225 24.36C41.3825 24.36 42.5292 23.8667 43.4625 22.88C44.4225 21.8933 44.9025 20.5467 44.9025 18.84ZM70.2909 7.44C72.9043 7.44 74.9843 8.29333 76.5309 10C78.1043 11.68 78.8909 14 78.8909 16.96V30H72.0909V17.88C72.0909 16.3867 71.7043 15.2267 70.9309 14.4C70.1576 13.5733 69.1176 13.16 67.8109 13.16C66.5043 13.16 65.4643 13.5733 64.6909 14.4C63.9176 15.2267 63.5309 16.3867 63.5309 17.88V30H56.6909V7.68H63.5309V10.64C64.2243 9.65333 65.1576 8.88 66.3309 8.32C67.5043 7.73333 68.8243 7.44 70.2909 7.44ZM82.2841 18.8C82.2841 16.5067 82.7107 14.4933 83.5641 12.76C84.4441 11.0267 85.6307 9.69333 87.1241 8.76C88.6174 7.82667 90.2841 7.36 92.1241 7.36C93.5907 7.36 94.9241 7.66666 96.1241 8.28C97.3507 8.89333 98.3107 9.72 99.0041 10.76V0.4H105.844V30H99.0041V26.8C98.3641 27.8667 97.4441 28.72 96.2441 29.36C95.0707 30 93.6974 30.32 92.1241 30.32C90.2841 30.32 88.6174 29.8533 87.1241 28.92C85.6307 27.96 84.4441 26.6133 83.5641 24.88C82.7107 23.12 82.2841 21.0933 82.2841 18.8ZM99.0041 18.84C99.0041 17.1333 98.5241 15.7867 97.5641 14.8C96.6307 13.8133 95.4841 13.32 94.1241 13.32C92.7641 13.32 91.6041 13.8133 90.6441 14.8C89.7107 15.76 89.2441 17.0933 89.2441 18.8C89.2441 20.5067 89.7107 21.8667 90.6441 22.88C91.6041 23.8667 92.7641 24.36 94.1241 24.36C95.4841 24.36 96.6307 23.8667 97.5641 22.88C98.5241 21.8933 99.0041 20.5467 99.0041 18.84ZM109.433 18.8C109.433 16.5067 109.859 14.4933 110.713 12.76C111.593 11.0267 112.779 9.69333 114.273 8.76C115.766 7.82667 117.433 7.36 119.273 7.36C120.846 7.36 122.219 7.68 123.393 8.32C124.593 8.96 125.513 9.8 126.153 10.84V7.68H132.993V30H126.153V26.84C125.486 27.88 124.553 28.72 123.353 29.36C122.179 30 120.806 30.32 119.233 30.32C117.419 30.32 115.766 29.8533 114.273 28.92C112.779 27.96 111.593 26.6133 110.713 24.88C109.859 23.12 109.433 21.0933 109.433 18.8ZM126.153 18.84C126.153 17.1333 125.673 15.7867 124.713 14.8C123.779 13.8133 122.633 13.32 121.273 13.32C119.913 13.32 118.753 13.8133 117.793 14.8C116.859 15.76 116.393 17.0933 116.393 18.8C116.393 20.5067 116.859 21.8667 117.793 22.88C118.753 23.8667 119.913 24.36 121.273 24.36C122.633 24.36 123.779 23.8667 124.713 22.88C125.673 21.8933 126.153 20.5467 126.153 18.84ZM151.541 7.44C154.154 7.44 156.234 8.29333 157.781 10C159.354 11.68 160.141 14 160.141 16.96V30H153.341V17.88C153.341 16.3867 152.954 15.2267 152.181 14.4C151.408 13.5733 150.368 13.16 149.061 13.16C147.754 13.16 146.714 13.5733 145.941 14.4C145.168 15.2267 144.781 16.3867 144.781 17.88V30H137.941V7.68H144.781V10.64C145.474 9.65333 146.408 8.88 147.581 8.32C148.754 7.73333 150.074 7.44 151.541 7.44ZM163.534 18.8C163.534 16.5067 163.961 14.4933 164.814 12.76C165.694 11.0267 166.881 9.69333 168.374 8.76C169.867 7.82667 171.534 7.36 173.374 7.36C174.947 7.36 176.321 7.68 177.494 8.32C178.694 8.96 179.614 9.8 180.254 10.84V7.68H187.094V30H180.254V26.84C179.587 27.88 178.654 28.72 177.454 29.36C176.281 30 174.907 30.32 173.334 30.32C171.521 30.32 169.867 29.8533 168.374 28.92C166.881 27.96 165.694 26.6133 164.814 24.88C163.961 23.12 163.534 21.0933 163.534 18.8ZM180.254 18.84C180.254 17.1333 179.774 15.7867 178.814 14.8C177.881 13.8133 176.734 13.32 175.374 13.32C174.014 13.32 172.854 13.8133 171.894 14.8C170.961 15.76 170.494 17.0933 170.494 18.8C170.494 20.5067 170.961 21.8667 171.894 22.88C172.854 23.8667 174.014 24.36 175.374 24.36C176.734 24.36 177.881 23.8667 178.814 22.88C179.774 21.8933 180.254 20.5467 180.254 18.84ZM195.243 30.32C194.043 30.32 193.056 29.9733 192.283 29.28C191.536 28.56 191.163 27.68 191.163 26.64C191.163 25.5733 191.536 24.68 192.283 23.96C193.056 23.24 194.043 22.88 195.243 22.88C196.416 22.88 197.376 23.24 198.123 23.96C198.896 24.68 199.283 25.5733 199.283 26.64C199.283 27.68 198.896 28.56 198.123 29.28C197.376 29.9733 196.416 30.32 195.243 30.32Z" fill="#2E2E2E"/>
</svg>
